<svg xmlns="http://www.w3.org/2000/svg" xmlns:xlink="http://www.w3.org/1999/xlink" width="32" height="32" version="1.1" viewBox="0 0 32 32"><title>play_1x</title><desc>Created with Sketch.</desc><defs><linearGradient id="linearGradient-1" x1="91.497%" x2="-38.335%" y1="4.965%" y2="71.91%"><stop offset="0%" stop-color="#00A0FF"/><stop offset=".657%" stop-color="#00A1FF"/><stop offset="26.01%" stop-color="#00BEFF"/><stop offset="51.22%" stop-color="#00D2FF"/><stop offset="76.04%" stop-color="#00DFFF"/><stop offset="100%" stop-color="#00E3FF"/></linearGradient><linearGradient id="linearGradient-2" x1="107.589%" x2="-130.473%" y1="49.995%" y2="49.995%"><stop offset="0%" stop-color="#FFE000"/><stop offset="40.87%" stop-color="#FFBD00"/><stop offset="77.54%" stop-color="orange"/><stop offset="100%" stop-color="#FF9C00"/></linearGradient><linearGradient id="linearGradient-3" x1="86.244%" x2="-50.144%" y1="17.846%" y2="194.808%"><stop offset="0%" stop-color="#FF3A44"/><stop offset="100%" stop-color="#C31162"/></linearGradient><linearGradient id="linearGradient-4" x1="-18.809%" x2="42.093%" y1="-54.151%" y2="24.869%"><stop offset="0%" stop-color="#32A071"/><stop offset="6.85%" stop-color="#2DA771"/><stop offset="47.62%" stop-color="#15CF74"/><stop offset="80.09%" stop-color="#06E775"/><stop offset="100%" stop-color="#00F076"/></linearGradient></defs><g id="Symbols" fill="none" fill-rule="evenodd" stroke="none" stroke-width="1"><g id="play_1x"><g id="logo_play_prism_48dp"><g id="Group"><rect id="Rectangle-path" width="32" height="32" x="0" y="0" fill="#FFF" opacity="0"/><g id="Shape"><path fill="url(#linearGradient-1)" d="M0.517645344,0.607457627 C0.192688172,0.952010206 0,1.4843521 0,2.17672316 L0,26.8881648 C0,27.5805358 0.192688172,28.1145107 0.517645344,28.4574303 L0.600925825,28.5374449 L14.4434482,14.6965555 L14.4434482,14.5332604 L14.4434482,14.3699654 L0.599292874,0.525810097 L0.517645344,0.607457627 L0.517645344,0.607457627 Z" transform="translate(3.096774, 1.548387)"/><path fill="url(#linearGradient-2)" d="M19.0565336,19.3129069 L14.4434482,14.6965555 L14.4434482,14.5332604 L14.4434482,14.3699654 L19.0581666,9.75524695 L19.1626754,9.81403317 L24.6297941,12.9199052 C26.1908948,13.8065974 26.1908948,15.2582905 24.6297941,16.1466156 L19.1626754,19.2524877 L19.0565336,19.3129069 L19.0565336,19.3129069 Z" transform="translate(3.096774, 1.548387)"/><path fill="url(#linearGradient-3)" d="M19.1626754,19.2524877 L14.4434482,14.5332604 L0.517645344,28.4590632 C1.03202479,29.0044687 1.88279205,29.0714197 2.83970111,28.5276472 L19.1626754,19.2524877" transform="translate(3.096774, 1.548387)"/><path fill="url(#linearGradient-4)" d="M19.1626754,9.81403317 L2.83970111,0.538873701 C1.88279205,-0.00489885183 1.03202479,0.0620521232 0.517645344,0.607457627 L14.4434482,14.5332604 L19.1626754,9.81403317 L19.1626754,9.81403317 Z" transform="translate(3.096774, 1.548387)"/><g fill="#000"><path d="M19.0581666,0.0440896665 L2.83970111,9.25882996 C1.93178057,9.77484235 1.12183707,9.74055039 0.600925825,9.27026062 L0.600925825,9.27026062 L0.517645344,9.3535411 L0.517645344,9.3535411 L0.600925825,9.43355568 L0.600925825,9.43355568 C1.12183707,9.9022125 1.93178057,9.93813742 2.83970111,9.42212502 L19.1626754,0.146965555 L19.0581666,0.0440896665 L19.0581666,0.0440896665 Z" opacity=".2" transform="translate(3.096774, 1.548387) translate(0.000000, 19.105522)"/><path d="M0.517645344,9.19024604 C0.192688172,8.84569346 0,8.31171861 0,7.6209805 L0,7.78427556 C0,8.47664662 0.192688172,9.01062147 0.517645344,9.3535411 L0.600925825,9.27026062 L0.517645344,9.19024604 L0.517645344,9.19024604 Z" opacity=".12" transform="translate(3.096774, 1.548387) translate(0.000000, 19.105522)"/></g><path fill="#000" d="M24.6297941,15.9833206 L19.0581666,19.1496118 L19.1626754,19.2541206 L24.6297941,16.1482486 C25.4103445,15.704086 25.8006196,15.1194897 25.8006196,14.5348934 L25.8006196,14.5348934 C25.7353016,15.0623364 25.3368617,15.5816147 24.6297941,15.9833206 L24.6297941,15.9833206 Z" opacity=".12" transform="translate(3.096774, 1.548387)"/><path fill="#FFF" d="M2.83970111,0.702168763 L24.6297941,13.0832003 C25.3384946,13.4849061 25.7353016,14.0041844 25.8006196,14.5332604 L25.8006196,14.5332604 C25.8006196,13.9486641 25.4103445,13.3640678 24.6297941,12.9199052 L2.83970111,0.538873701 C1.27696738,-0.34781848 0,0.388642245 0,2.17835611 L0,2.34165118 C0,0.551937306 1.27696738,-0.184523419 2.83970111,0.702168763 L2.83970111,0.702168763 Z" opacity=".25" transform="translate(3.096774, 1.548387)"/></g></g></g></g></g></svg>