<svg xmlns="http://www.w3.org/2000/svg" xmlns:xlink="http://www.w3.org/1999/xlink" width="1612pt" height="653pt" viewBox="0 0 1612 653"><g id="graph0" class="graph" transform="scale(1 1) rotate(0) translate(4 649)"><title>SocketPools</title><polygon fill="#fff" stroke="#fff" points="-4 4 -4 -649 1608 -649 1608 4 -4 4"/><g id="clust1" class="cluster"><title>cluster_legend</title><polygon fill="none" stroke="#000" points="8 -440 8 -637 743 -637 743 -440 8 -440"/><text x="375.5" y="-621.8" font-family="Times,serif" font-size="14" text-anchor="middle">Legend</text></g><g id="node1" class="node"><title>BaseClass</title><ellipse cx="687" cy="-466" fill="none" stroke="#000" rx="48.144" ry="18"/><text x="687" y="-462.3" font-family="Times,serif" font-size="14" text-anchor="middle">BaseClass</text></g><g id="node2" class="node"><title>SubClass</title><ellipse cx="673" cy="-588" fill="none" stroke="#000" rx="61.616" ry="18"/><text x="673" y="-584.3" font-family="Times,serif" font-size="14" text-anchor="middle">Derived Class</text></g><g id="edge1" class="edge"><title>SubClass-&gt;BaseClass</title><path fill="none" stroke="#000" d="M675.006,-569.807C677.303,-550.114 681.099,-517.583 683.805,-494.39"/><polygon fill="none" stroke="#000" points="687.315 -494.499 684.998 -484.161 680.363 -493.688 687.315 -494.499"/></g><g id="node7" class="node"><title>Interface</title><ellipse cx="552" cy="-466" fill="none" stroke="#000" stroke-dasharray="5 2" rx="68.342" ry="18"/><text x="552" y="-462.3" font-family="Times,serif" font-size="14" text-anchor="middle">Interface / ABC</text></g><g id="edge2" class="edge"><title>SubClass-&gt;Interface</title><path fill="none" stroke="#000" stroke-dasharray="5 2" d="M656.175,-570.315C635.316,-549.627 599.623,-514.23 575.922,-490.724"/><polygon fill="none" stroke="#000" points="578.247 -488.1 568.682 -483.544 573.317 -493.071 578.247 -488.1"/></g><g id="node3" class="node"><title>Whole</title><ellipse cx="430" cy="-466" fill="none" stroke="#000" rx="35.145" ry="18"/><text x="430" y="-462.3" font-family="Times,serif" font-size="14" text-anchor="middle">Whole</text></g><g id="node4" class="node"><title>Part</title><ellipse cx="409" cy="-588" fill="none" stroke="#000" rx="27" ry="18"/><text x="409" y="-584.3" font-family="Times,serif" font-size="14" text-anchor="middle">Part</text></g><g id="edge3" class="edge"><title>Part-&gt;Whole</title><path fill="none" stroke="#000" d="M411.964,-570.061C415.322,-550.874 420.853,-519.267 424.906,-496.107"/><polygon fill="#000" stroke="#000" points="424.914 -496.061 422.008 -489.462 426.983 -484.241 429.889 -490.841 424.914 -496.061"/><text x="450.5" y="-533.3" font-family="Times,serif" font-size="14" text-anchor="middle">ownership</text></g><g id="edge4" class="edge"><title>Part-&gt;Whole</title><path fill="none" stroke="#000" d="M390.377,-574.55C383.219,-568.652 375.847,-560.934 372,-552 366.727,-539.754 366.735,-534.25 372,-522 377.706,-508.725 388.366,-497.15 399.005,-488.088"/><polygon fill="none" stroke="#000" points="399.207 -487.929 401.44 -481.072 408.628 -480.496 406.395 -487.353 399.207 -487.929"/><text x="392" y="-533.3" font-family="Times,serif" font-size="14" text-anchor="middle">pointer</text></g><g id="node5" class="node"><title>A</title><ellipse cx="137" cy="-588" fill="none" stroke="#000" rx="27" ry="18"/><text x="137" y="-584.3" font-family="Times,serif" font-size="14" text-anchor="middle">A</text></g><g id="node6" class="node"><title>B</title><ellipse cx="137" cy="-466" fill="none" stroke="#000" rx="27" ry="18"/><text x="137" y="-462.3" font-family="Times,serif" font-size="14" text-anchor="middle">B</text></g><g id="edge6" class="edge"><title>A-&gt;B</title><path fill="none" stroke="#000" d="M137,-569.807C137,-548.599 137,-512.502 137,-489.213"/><polyline fill="none" stroke="#000" points="137 -484.161 137 -489.161"/><text x="168.5" y="-533.3" font-family="Times,serif" font-size="14" text-anchor="middle">association</text><text x="127" y="-487.961" font-family="Times,serif" font-size="14" text-anchor="middle">?..?</text><text x="127" y="-558.607" font-family="Times,serif" font-size="14" text-anchor="middle">?..?</text></g><g id="node8" class="node"><title>template_class</title><polygon fill="none" stroke="#000" points="273 -606 182.505 -588 273 -570 363.495 -588 273 -606"/><text x="273" y="-584.3" font-family="Times,serif" font-size="14" text-anchor="middle">template_class</text></g><g id="node9" class="node"><title>RefCountedPart</title><ellipse cx="524" cy="-588" fill="none" stroke="#000" rx="69.316" ry="18"/><text x="524" y="-584.3" font-family="Times,serif" font-size="14" text-anchor="middle">RefCountedPart</text></g><g id="edge5" class="edge"><title>RefCountedPart-&gt;Whole</title><path fill="none" stroke="red" d="M514.948,-570.026C507.41,-556.495 496.003,-537.34 484,-522 475.376,-510.979 464.787,-499.783 455.277,-490.396"/><polygon fill="red" stroke="red" points="455.225 -490.346 448.13 -489.058 446.589 -482.014 453.684 -483.301 455.225 -490.346"/><text x="534.5" y="-540.8" font-family="Times,serif" font-size="14" text-anchor="middle">partial</text><text x="534.5" y="-525.8" font-family="Times,serif" font-size="14" text-anchor="middle">ownership</text></g><g id="node10" class="node"><title>Factory</title><ellipse cx="54" cy="-588" fill="none" stroke="#000" rx="38.021" ry="18"/><text x="54" y="-584.3" font-family="Times,serif" font-size="14" text-anchor="middle">Factory</text></g><g id="node11" class="node"><title>object</title><ellipse cx="54" cy="-466" fill="none" stroke="#000" rx="33.221" ry="18"/><text x="54" y="-462.3" font-family="Times,serif" font-size="14" text-anchor="middle">object</text></g><g id="edge7" class="edge"><title>Factory-&gt;object</title><path fill="none" stroke="#000" d="M54,-569.807C54,-552.787 54,-526.178 54,-504.296"/><polygon fill="#000" stroke="#000" points="54 -484.161 58.5 -494.161 54 -489.161 54 -494.161 54 -494.161 54 -494.161 54 -489.161 49.5 -494.161 54 -484.161 54 -484.161"/><polygon fill="#000" stroke="#000" points="54 -494.161 58.5 -504.161 54 -499.161 54 -504.161 54 -504.161 54 -504.161 54 -499.161 49.5 -504.161 54 -494.161 54 -494.161"/></g><g id="node12" class="node"><title>ClientSocketPoolBase</title><polygon fill="none" stroke="#000" points="888 -606 757.72 -588 888 -570 1018.28 -588 888 -606"/><text x="888" y="-584.3" font-family="Times,serif" font-size="14" text-anchor="middle">ClientSocketPoolBase</text></g><g id="node31" class="node"><title>TransportClientSocketPool</title><ellipse cx="901" cy="-466" fill="none" stroke="#000" rx="109.261" ry="18"/><text x="901" y="-462.3" font-family="Times,serif" font-size="14" text-anchor="middle">TransportClientSocketPool</text></g><g id="edge18" class="edge"><title>ClientSocketPoolBase-&gt;TransportClientSocketPool</title><path fill="none" stroke="#000" d="M889.835,-570.061C891.904,-550.962 895.306,-519.56 897.812,-496.429"/><polygon fill="#000" stroke="#000" points="897.84 -496.171 894.509 -489.775 899.132 -484.241 902.463 -490.637 897.84 -496.171"/><text x="961" y="-533.3" font-family="Times,serif" font-size="14" text-anchor="middle">TransportSocketParams</text></g><g id="node13" class="node"><title>ClientSocketPoolBaseHelper</title><ellipse cx="930" cy="-166" fill="none" stroke="#000" rx="116.484" ry="18"/><text x="930" y="-162.3" font-family="Times,serif" font-size="14" text-anchor="middle">ClientSocketPoolBaseHelper</text></g><g id="edge17" class="edge"><title>ClientSocketPoolBaseHelper-&gt;ClientSocketPoolBase</title><path fill="none" stroke="#000" d="M841.61,-177.778C801.552,-188.118 763,-208.365 763,-248 763,-467 763,-467 763,-467 763,-514.437 810.427,-548.965 846.854,-568.488"/><polygon fill="#000" stroke="#000" points="847.06 -568.593 854.224 -567.768 857.741 -574.063 850.577 -574.888 847.06 -568.593"/></g><g id="node21" class="node"><title>ConnectJob_Delegate</title><ellipse cx="1302" cy="-92" fill="none" stroke="#000" stroke-dasharray="1 5" rx="90.488" ry="18"/><text x="1302" y="-88.3" font-family="Times,serif" font-size="14" text-anchor="middle">ConnectJob::Delegate</text></g><g id="edge10" class="edge"><title>ClientSocketPoolBaseHelper-&gt;ConnectJob_Delegate</title><path fill="none" stroke="#000" d="M999.534,-151.542C1065.14,-138.843 1163.1,-119.884 1229.62,-107.008"/><polygon fill="none" stroke="#000" points="1230.46 -110.412 1239.61 -105.075 1229.13 -103.539 1230.46 -110.412"/></g><g id="node14" class="node"><title>ClientSocketPoolBaseHelper_ConnectJobFactory</title><ellipse cx="1104" cy="-249" fill="none" stroke="#000" stroke-dasharray="1 5" rx="132.404" ry="26.741"/><text x="1104" y="-252.8" font-family="Times,serif" font-size="14" text-anchor="middle">ClientSocketPoolBaseHelper::</text><text x="1104" y="-237.8" font-family="Times,serif" font-size="14" text-anchor="middle">ConnectJobFactory</text></g><g id="edge20" class="edge"><title>ClientSocketPoolBaseHelper_ConnectJobFactory-&gt;ClientSocketPoolBaseHelper</title><path fill="none" stroke="#000" d="M1052.74,-224.135C1028.44,-212.826 999.648,-199.422 976.057,-188.44"/><polygon fill="#000" stroke="#000" points="975.816 -188.328 968.688 -189.422 964.937 -183.264 972.064 -182.17 975.816 -188.328"/></g><g id="node20" class="node"><title>ConnectJob</title><ellipse cx="1491" cy="-249" fill="none" stroke="#000" stroke-dasharray="5 2" rx="53.418" ry="18"/><text x="1491" y="-245.3" font-family="Times,serif" font-size="14" text-anchor="middle">ConnectJob</text></g><g id="edge27" class="edge"><title>ClientSocketPoolBaseHelper_ConnectJobFactory-&gt;ConnectJob</title><path fill="none" stroke="#000" d="M1164.57,-272.905C1228.79,-294.786 1332.66,-320.226 1419,-295 1431.5,-291.349 1443.89,-284.795 1454.78,-277.757"/><polygon fill="#000" stroke="#000" points="1471.44 -265.884 1465.9 -275.352 1467.36 -268.786 1463.29 -271.687 1463.29 -271.687 1463.29 -271.687 1467.36 -268.786 1460.68 -268.023 1471.44 -265.884 1471.44 -265.884"/><polygon fill="#000" stroke="#000" points="1463.29 -271.687 1457.76 -281.156 1459.22 -274.589 1455.15 -277.491 1455.15 -277.491 1455.15 -277.491 1459.22 -274.589 1452.54 -273.827 1463.29 -271.687 1463.29 -271.687"/></g><g id="node15" class="node"><title>ClientSocketPoolBase_ConnectJobFactory</title><polygon fill="none" stroke="#000" stroke-dasharray="1 5" points="1194 -504 1045 -466 1194 -428 1343 -466 1194 -504"/><text x="1194" y="-469.8" font-family="Times,serif" font-size="14" text-anchor="middle">ClientSocketPoolBase::</text><text x="1194" y="-454.8" font-family="Times,serif" font-size="14" text-anchor="middle">ConnectJobFactory</text></g><g id="node16" class="node"><title>ClientSocketPoolBase_ConnectJobFactoryAdaptor</title><polygon fill="none" stroke="#000" points="1146 -390 975 -352 1146 -314 1317 -352 1146 -390"/><text x="1146" y="-355.8" font-family="Times,serif" font-size="14" text-anchor="middle">ClientSocketPoolBase::</text><text x="1146" y="-340.8" font-family="Times,serif" font-size="14" text-anchor="middle">ConnectJobFactoryAdaptor</text></g><g id="edge19" class="edge"><title>ClientSocketPoolBase_ConnectJobFactory-&gt;ClientSocketPoolBase_ConnectJobFactoryAdaptor</title><path fill="none" stroke="#000" d="M1179.6,-431.396C1175.13,-420.971 1170.13,-409.306 1165.38,-398.226"/><polygon fill="#000" stroke="#000" points="1165.28 -397.997 1159.24 -394.058 1160.56 -386.967 1166.6 -390.906 1165.28 -397.997"/></g><g id="edge28" class="edge"><title>ClientSocketPoolBase_ConnectJobFactory-&gt;ConnectJob</title><path fill="none" stroke="#000" d="M1245.4,-440.879C1270.92,-427.675 1301.46,-409.949 1326,-390 1360.94,-361.599 1358.95,-343.467 1393,-314 1409.54,-299.689 1429.49,-286.1 1447.06,-275.155"/><polygon fill="#000" stroke="#000" points="1464.27 -264.787 1458.03 -273.802 1459.99 -267.368 1455.7 -269.948 1455.7 -269.948 1455.7 -269.948 1459.99 -267.368 1453.38 -266.093 1464.27 -264.787 1464.27 -264.787"/><polygon fill="#000" stroke="#000" points="1455.7 -269.948 1449.46 -278.963 1451.42 -272.528 1447.14 -275.108 1447.14 -275.108 1447.14 -275.108 1451.42 -272.528 1444.82 -271.254 1455.7 -269.948 1455.7 -269.948"/></g><g id="edge12" class="edge"><title>ClientSocketPoolBase_ConnectJobFactoryAdaptor-&gt;ClientSocketPoolBaseHelper_ConnectJobFactory</title><path fill="none" stroke="#000" d="M1131.9,-317.087C1127.67,-306.925 1123.03,-295.755 1118.76,-285.494"/><polygon fill="none" stroke="#000" points="1121.88 -283.886 1114.81 -275.997 1115.42 -286.574 1121.88 -283.886"/></g><g id="node17" class="node"><title>HigherLayeredPool</title><ellipse cx="1337" cy="-249" fill="none" stroke="#000" stroke-dasharray="1 5" rx="82.314" ry="18"/><text x="1337" y="-245.3" font-family="Times,serif" font-size="14" text-anchor="middle">HigherLayeredPool</text></g><g id="edge24" class="edge"><title>HigherLayeredPool-&gt;ClientSocketPoolBaseHelper</title><path fill="none" stroke="#000" d="M1290.91,-233.974C1276.31,-229.8 1260.05,-225.431 1245,-222 1171.14,-205.162 1086.52,-190.648 1023.6,-180.764"/><polygon fill="none" stroke="#000" points="1023.57 -180.759 1017.02 -183.788 1011.71 -178.911 1018.26 -175.883 1023.57 -180.759"/><text x="1286.91" y="-222.774" font-family="Times,serif" font-size="14" text-anchor="middle">*</text></g><g id="node18" class="node"><title>LowerLayeredPool</title><ellipse cx="872" cy="-249" fill="none" stroke="#000" stroke-dasharray="1 5" rx="81.365" ry="18"/><text x="872" y="-245.3" font-family="Times,serif" font-size="14" text-anchor="middle">LowerLayeredPool</text></g><g id="edge25" class="edge"><title>LowerLayeredPool-&gt;ClientSocketPoolBaseHelper</title><path fill="none" stroke="#000" d="M884.3,-230.822C891.913,-220.19 901.855,-206.306 910.521,-194.204"/><polygon fill="none" stroke="#000" points="910.731 -193.91 910.972 -186.703 917.717 -184.153 917.477 -191.36 910.731 -193.91"/><text x="880.3" y="-219.622" font-family="Times,serif" font-size="14" text-anchor="middle">*</text></g><g id="node19" class="node"><title>ClientSocketPool</title><ellipse cx="879" cy="-352" fill="none" stroke="#000" stroke-dasharray="1 5" rx="74.615" ry="18"/><text x="879" y="-348.3" font-family="Times,serif" font-size="14" text-anchor="middle">ClientSocketPool</text></g><g id="edge9" class="edge"><title>ClientSocketPool-&gt;LowerLayeredPool</title><path fill="none" stroke="#000" d="M877.813,-333.867C876.742,-318.414 875.148,-295.416 873.9,-277.409"/><polygon fill="none" stroke="#000" points="877.376 -276.951 873.193 -267.217 870.393 -277.435 877.376 -276.951"/></g><g id="edge23" class="edge"><title>ConnectJob-&gt;ConnectJob_Delegate</title><path fill="none" stroke="#000" d="M1461.84,-224.089C1423.16,-192.362 1355.84,-137.158 1322.26,-109.618"/><polygon fill="none" stroke="#000" points="1462.21 -224.387 1469.38 -225.098 1471.49 -231.996 1464.31 -231.284 1462.21 -224.387"/></g><g id="node22" class="node"><title>ClientSocketFactory</title><ellipse cx="636" cy="-249" fill="none" stroke="#000" stroke-dasharray="1 5" rx="85.19" ry="18"/><text x="636" y="-245.3" font-family="Times,serif" font-size="14" text-anchor="middle">ClientSocketFactory</text></g><g id="edge26" class="edge"><title>ClientSocketFactory-&gt;ClientSocketPoolBaseHelper</title><path fill="none" stroke="#000" d="M669.499,-232.343C691.664,-222.491 721.59,-210.144 749,-202 777.322,-193.585 808.753,-186.688 837.369,-181.308"/><polygon fill="none" stroke="#000" points="837.64 -181.259 842.821 -176.243 849.444 -179.096 844.263 -184.112 837.64 -181.259"/></g><g id="node24" class="node"><title>TCPClientSocket</title><ellipse cx="636" cy="-166" fill="none" stroke="#000" rx="74.615" ry="18"/><text x="636" y="-162.3" font-family="Times,serif" font-size="14" text-anchor="middle">TCPClientSocket</text></g><g id="edge29" class="edge"><title>ClientSocketFactory-&gt;TCPClientSocket</title><path fill="none" stroke="#000" d="M636,-230.822C636,-223.09 636,-213.637 636,-204.401"/><polygon fill="#000" stroke="#000" points="636 -184.153 640.5 -194.153 636 -189.153 636 -194.153 636 -194.153 636 -194.153 636 -189.153 631.5 -194.153 636 -184.153 636 -184.153"/><polygon fill="#000" stroke="#000" points="636 -194.153 640.5 -204.153 636 -199.153 636 -204.153 636 -204.153 636 -204.153 636 -199.153 631.5 -204.153 636 -194.153 636 -194.153"/></g><g id="node23" class="node"><title>DefaultClientSocketFactory</title><ellipse cx="622" cy="-352" fill="none" stroke="#000" rx="113.135" ry="18"/><text x="622" y="-348.3" font-family="Times,serif" font-size="14" text-anchor="middle">DefaultClientSocketFactory</text></g><g id="edge14" class="edge"><title>DefaultClientSocketFactory-&gt;ClientSocketFactory</title><path fill="none" stroke="#000" d="M624.375,-333.867C626.527,-318.341 629.735,-295.2 632.236,-277.156"/><polygon fill="none" stroke="#000" points="635.707 -277.603 633.613 -267.217 628.773 -276.642 635.707 -277.603"/></g><g id="node25" class="node"><title>StreamSocket</title><ellipse cx="636" cy="-92" fill="none" stroke="#000" stroke-dasharray="1 5" rx="61.142" ry="18"/><text x="636" y="-88.3" font-family="Times,serif" font-size="14" text-anchor="middle">StreamSocket</text></g><g id="edge16" class="edge"><title>TCPClientSocket-&gt;StreamSocket</title><path fill="none" stroke="#000" d="M636,-147.937C636,-139.807 636,-129.876 636,-120.705"/><polygon fill="none" stroke="#000" points="639.5 -120.441 636 -110.441 632.5 -120.441 639.5 -120.441"/></g><g id="node26" class="node"><title>Socket</title><ellipse cx="636" cy="-18" fill="none" stroke="#000" rx="35.619" ry="18"/><text x="636" y="-14.3" font-family="Times,serif" font-size="14" text-anchor="middle">Socket</text></g><g id="edge15" class="edge"><title>StreamSocket-&gt;Socket</title><path fill="none" stroke="#000" d="M636,-73.937C636,-65.8072 636,-55.8761 636,-46.7047"/><polygon fill="none" stroke="#000" points="639.5 -46.441 636 -36.441 632.5 -46.441 639.5 -46.441"/></g><g id="node27" class="node"><title>TransportSocketParams</title><ellipse cx="1491" cy="-588" fill="none" stroke="#000" rx="97.237" ry="18"/><text x="1491" y="-584.3" font-family="Times,serif" font-size="14" text-anchor="middle">TransportSocketParams</text></g><g id="node28" class="node"><title>TransportConnectJobHelper</title><ellipse cx="1491" cy="-466" fill="none" stroke="#000" rx="113.61" ry="18"/><text x="1491" y="-462.3" font-family="Times,serif" font-size="14" text-anchor="middle">TransportConnectJobHelper</text></g><g id="edge22" class="edge"><title>TransportSocketParams-&gt;TransportConnectJobHelper</title><path fill="none" stroke="red" d="M1491,-569.807C1491,-550.648 1491,-519.34 1491,-496.299"/><polygon fill="red" stroke="red" points="1491 -496.161 1487 -490.161 1491 -484.161 1495 -490.161 1491 -496.161"/></g><g id="node30" class="node"><title>TransportConnectJob</title><ellipse cx="1491" cy="-352" fill="none" stroke="#000" rx="89.063" ry="18"/><text x="1491" y="-348.3" font-family="Times,serif" font-size="14" text-anchor="middle">TransportConnectJob</text></g><g id="edge21" class="edge"><title>TransportConnectJobHelper-&gt;TransportConnectJob</title><path fill="none" stroke="#000" d="M1491,-447.99C1491,-430.557 1491,-403.116 1491,-382.202"/><polygon fill="#000" stroke="#000" points="1491 -382.17 1487 -376.171 1491 -370.17 1495 -376.17 1491 -382.17"/></g><g id="node29" class="node"><title>TransportConnectJobFactory</title><ellipse cx="1194" cy="-588" fill="none" stroke="#000" rx="116.484" ry="18"/><text x="1194" y="-584.3" font-family="Times,serif" font-size="14" text-anchor="middle">TransportConnectJobFactory</text></g><g id="edge11" class="edge"><title>TransportConnectJobFactory-&gt;ClientSocketPoolBase_ConnectJobFactory</title><path fill="none" stroke="#000" d="M1194,-569.807C1194,-555.293 1194,-533.805 1194,-514.222"/><polygon fill="none" stroke="#000" points="1197.5 -514.202 1194 -504.202 1190.5 -514.202 1197.5 -514.202"/><text x="1261" y="-533.3" font-family="Times,serif" font-size="14" text-anchor="middle">TransportSocketParams</text></g><g id="edge13" class="edge"><title>TransportConnectJob-&gt;ConnectJob</title><path fill="none" stroke="#000" d="M1491,-333.867C1491,-318.414 1491,-295.416 1491,-277.409"/><polygon fill="none" stroke="#000" points="1494.5 -277.217 1491 -267.217 1487.5 -277.217 1494.5 -277.217"/></g><g id="edge8" class="edge"><title>TransportClientSocketPool-&gt;ClientSocketPool</title><path fill="none" stroke="#000" d="M897.659,-447.99C894.121,-429.981 888.486,-401.293 884.333,-380.152"/><polygon fill="none" stroke="#000" points="887.735 -379.308 882.373 -370.17 880.866 -380.658 887.735 -379.308"/></g></g></svg>