<svg xmlns="http://www.w3.org/2000/svg" xmlns:svg="http://www.w3.org/2000/svg" id="svg3070" width="9.68" height="9.68" version="1.1" viewBox="0 0 9.68 9.68"><metadata id="metadata3080"/><path style="fill:#fff;fill-opacity:1;stroke:none" id="path3055" d="M 4.0993739,0.10000031 3.955047,1.529977 C 3.6606418,1.6084493 3.3817812,1.7244042 3.1242193,1.8737023 L 2.0113836,0.9640616 0.96406137,2.0113834 1.8737015,3.125168 C 1.7244073,3.3828134 1.6084118,3.661503 1.5299762,3.9559988 L 0.1,4.0993751 l 0,1.4812504 1.4299762,0.144327 c 0.078437,0.2942422 0.1945471,0.5724334 0.3437253,0.8298801 L 0.96406137,7.6686182 2.0113836,8.715938 3.1251682,7.8062983 c 0.257443,0.1491762 0.5356366,0.2652919 0.8298788,0.3437263 l 0.1443269,1.4299757 1.4812501,0 0.1433782,-1.4299757 C 6.0184983,8.0715822 6.2971869,7.9555934 6.5548308,7.8062983 L 7.6686174,8.715938 8.7159366,7.6686182 7.8062965,6.5557823 C 7.9555957,6.2982177 8.0715462,6.0193584 8.1500238,5.7249525 L 9.58,5.5806255 9.58,4.0993751 8.1500238,3.9559988 C 8.0715462,3.6613382 7.9557117,3.3819836 7.8062965,3.1242193 L 8.7159366,2.0113834 7.6686174,0.9640616 6.5557807,1.8737023 C 6.2980168,1.7242884 6.0186622,1.6084563 5.7240022,1.529977 L 5.580624,0.10000031 z M 4.84,3.469844 c 0.7567674,0 1.3705197,0.6133893 1.3705197,1.3701568 0,0.7567685 -0.6137523,1.3701558 -1.3705197,1.3701558 -0.7567684,0 -1.3697928,-0.6133873 -1.3697928,-1.3701558 0,-0.7567675 0.6130244,-1.3701568 1.3697928,-1.3701568 z"/></svg>