<svg xmlns="http://www.w3.org/2000/svg" xmlns:xlink="http://www.w3.org/1999/xlink" width="34" height="34" version="1.1" viewBox="0 0 34 34"><g fill="none" fill-rule="evenodd" stroke="none" stroke-width="1"><g><g><g transform="translate(-111.0, -254.0) translate(108.0, 249.0)"><polygon points="0 0 40 0 40 40 0 40"/><path fill="#FFF" fill-opacity=".8" d="M33.3333333,5 L6.66666667,5 C4.825,5 3.35,6.49166667 3.35,8.33333333 L3.33333333,25 C3.33333333,26.8416667 4.825,28.3333333 6.66666667,28.3333333 L33.3333333,28.3333333 C35.175,28.3333333 36.6666667,26.8416667 36.6666667,25 L36.6666667,8.33333333 C36.6666667,6.49166667 35.175,5 33.3333333,5 L33.3333333,5 Z M18.3333333,10 L21.6666667,10 L21.6666667,13.3333333 L18.3333333,13.3333333 L18.3333333,10 L18.3333333,10 Z M18.3333333,15 L21.6666667,15 L21.6666667,18.3333333 L18.3333333,18.3333333 L18.3333333,15 L18.3333333,15 Z M13.3333333,10 L16.6666667,10 L16.6666667,13.3333333 L13.3333333,13.3333333 L13.3333333,10 L13.3333333,10 Z M13.3333333,15 L16.6666667,15 L16.6666667,18.3333333 L13.3333333,18.3333333 L13.3333333,15 L13.3333333,15 Z M11.6666667,18.3333333 L8.33333333,18.3333333 L8.33333333,15 L11.6666667,15 L11.6666667,18.3333333 L11.6666667,18.3333333 Z M11.6666667,13.3333333 L8.33333333,13.3333333 L8.33333333,10 L11.6666667,10 L11.6666667,13.3333333 L11.6666667,13.3333333 Z M26.6666667,25 L13.3333333,25 L13.3333333,21.6666667 L26.6666667,21.6666667 L26.6666667,25 L26.6666667,25 Z M26.6666667,18.3333333 L23.3333333,18.3333333 L23.3333333,15 L26.6666667,15 L26.6666667,18.3333333 L26.6666667,18.3333333 Z M26.6666667,13.3333333 L23.3333333,13.3333333 L23.3333333,10 L26.6666667,10 L26.6666667,13.3333333 L26.6666667,13.3333333 Z M31.6666667,18.3333333 L28.3333333,18.3333333 L28.3333333,15 L31.6666667,15 L31.6666667,18.3333333 L31.6666667,18.3333333 Z M31.6666667,13.3333333 L28.3333333,13.3333333 L28.3333333,10 L31.6666667,10 L31.6666667,13.3333333 L31.6666667,13.3333333 Z M20,38.3333333 L26.6666667,31.6666667 L13.3333333,31.6666667 L20,38.3333333 L20,38.3333333 Z"/></g></g></g></g></svg>