<svg xmlns="http://www.w3.org/2000/svg" xmlns:xlink="http://www.w3.org/1999/xlink" width="58" height="58" version="1.1" viewBox="0 0 58 58"><title>Fill 1</title><defs><filter id="filter-1" width="200%" height="200%" x="-50%" y="-50%" filterUnits="objectBoundingBox"><feOffset dx="0" dy="2" in="SourceAlpha" result="shadowOffsetOuter1"/><feGaussianBlur in="shadowOffsetOuter1" result="shadowBlurOuter1" stdDeviation="7"/><feColorMatrix in="shadowBlurOuter1" result="shadowMatrixOuter1" type="matrix" values="0 0 0 0 0 0 0 0 0 0 0 0 0 0 0 0 0 0 0.130321558 0"/><feMerge><feMergeNode in="shadowMatrixOuter1"/><feMergeNode in="SourceGraphic"/></feMerge></filter></defs><g id="Layout" fill="none" fill-rule="evenodd" stroke="none" stroke-width="1"><g id="omni-idle" fill="#565656" transform="translate(-803.000000, -920.000000)"><g id="omni" filter="url(#filter-1)" transform="translate(782.000000, 896.000000)"><g id="Back" transform="translate(26.000000, 27.000000)"><g id="back" transform="translate(8.000000, 8.000000)"><path id="Fill-1" d="M17.0289822,28.2849399 L6.74548952,18 L29.916,18 L29.916,17.9982651 C29.9438573,17.9994179 29.9718611,18 30,18 C31.104,18 32,17.104 32,16 C32,14.896 31.104,14 30,14 C29.9718611,14 29.9438573,14.0005821 29.916,14.0017349 L29.916,14 L6.74548952,14 L17.0289822,3.71506014 C17.6106299,3.365158 18,2.72777375 18,2 C18,0.896 17.104,0 16,0 C15.4266494,0 14.9093992,0.241663132 14.5446194,0.628619359 L14.502,0.586 L0.29,14.798 L0.354827342,14.8628732 C0.131113098,15.1858039 1.13686838e-12,15.5776834 1.13686838e-12,16 C1.13686838e-12,16.4223166 0.131113098,16.8141961 0.354827342,17.1371268 L0.29,17.202 L14.502,31.414 L14.5446194,31.3713806 C14.9093992,31.7583369 15.4266494,32 16,32 C17.104,32 18,31.104 18,30 C18,29.2722263 17.6106299,28.634842 17.0289822,28.2849399 Z"/></g></g></g></g></g></svg>