<svg xmlns="http://www.w3.org/2000/svg" xmlns:xlink="http://www.w3.org/1999/xlink" width="571pt" height="650pt" viewBox="0 0 571 650"><g id="graph0" class="graph" transform="scale(1 1) rotate(0) translate(4 646)"><title>files32</title><g id="node1" class="node"><title>def_files</title><polygon style="fill:#d3d3d3;stroke:#000" points="252 -642 12 -642 12 -646 0 -646 0 -512 252 -512 252 -642"/><polyline style="fill:none;stroke:#000" points="0 -642 12 -642"/><text x="12" y="-623.733" text-anchor="start" style="font-family:Times New Roman;font-size:14">general_purpose_instructions.def</text><text x="12" y="-603.733" text-anchor="start" style="font-family:Times New Roman;font-size:14">mmx_instructions.def</text><text x="12" y="-583.733" text-anchor="start" style="font-family:Times New Roman;font-size:14">nops.def</text><text x="12" y="-563.733" text-anchor="start" style="font-family:Times New Roman;font-size:14">system_instructions.def</text><text x="12" y="-543.733" text-anchor="start" style="font-family:Times New Roman;font-size:14">x87_instructions.def</text><text x="12" y="-523.733" text-anchor="start" style="font-family:Times New Roman;font-size:14">xmm_instructions.def</text></g><g id="node7" class="node"><title>gen_dfa</title><polygon style="fill:gray;stroke:#000" points="89.07 -404 162.93 -404 189.234 -440 62.766 -440 89.07 -404"/><text x="126" y="-417.9" text-anchor="middle" style="font-family:Times New Roman;font-size:14">gen_dfa.py</text></g><g id="edge2" class="edge"><title>def_files-&gt;gen_dfa</title><path style="fill:none;stroke:#000" d="M125,-512C125,-490 125,-468 125,-450"/><path style="fill:none;stroke:#000" d="M127,-512C127,-490 127,-468 127,-450"/><polygon style="fill:#000;stroke:#000" points="129.5 -450 126 -440 122.5 -450 129.5 -450"/></g><g id="node2" class="node"><title>byte_machines_py</title><polygon style="fill:#d3d3d3;stroke:#000" points="410 -595 282 -595 282 -599 270 -599 270 -559 410 -559 410 -595"/><polyline style="fill:none;stroke:#000" points="270 -595 282 -595"/><text x="340" y="-572.9" text-anchor="middle" style="font-family:Times New Roman;font-size:14">byte_machines.py</text></g><g id="node12" class="node"><title>byte_machines_rl</title><polygon style="fill:none;stroke:#000" points="468 -332 336 -332 336 -296 468 -296 468 -332"/><text x="402" y="-309.9" text-anchor="middle" style="font-family:Times New Roman;font-size:14">byte_machines.rl</text></g><g id="edge6" class="edge"><title>byte_machines_py-&gt;byte_machines_rl</title><path style="fill:none;stroke:#000" d="M344,-559C354,-514 382,-396 396,-342"/><polygon style="fill:#000;stroke:#000" points="399.471 -342.492 398 -332 392.607 -341.119 399.471 -342.492"/><text x="404" y="-417.9" text-anchor="middle" style="font-family:Times New Roman;font-size:14">python</text></g><g id="node3" class="node"><title>parse_instruction_rl</title><polygon style="fill:#d3d3d3;stroke:#000" points="291 -494 153 -494 153 -498 141 -498 141 -458 291 -458 291 -494"/><polyline style="fill:none;stroke:#000" points="141 -494 153 -494"/><text x="216" y="-471.9" text-anchor="middle" style="font-family:Times New Roman;font-size:14">parse_instruction.rl</text></g><g id="node8" class="node"><title>ragel</title><polygon style="fill:gray;stroke:#000" points="151.938 -222 272.062 -222 314.843 -258 109.157 -258 151.938 -222"/><text x="212" y="-235.9" text-anchor="middle" style="font-family:Times New Roman;font-size:14">ragel &amp; codegen.py</text></g><g id="edge10" class="edge"><title>parse_instruction_rl-&gt;ragel</title><path style="fill:none;stroke:#000" d="M211.018,-458.19C205.016,-427.18 194.016,-367.18 206.164,-349.451 218.629,-331.223 239.629,-348.223 250.16,-331.458 258.132,-318.496 254.132,-311.496 250.048,-296.305 246.122,-286.479 240.122,-275.479 234.168,-266.555"/><path style="fill:none;stroke:#000" d="M212.982,-457.81C206.984,-426.82 195.984,-366.82 207.836,-350.549 217.371,-332.777 238.371,-349.777 251.84,-332.542 259.868,-317.504 255.868,-310.504 251.952,-295.695 247.878,-285.521 241.878,-274.521 235.832,-265.445"/><polygon style="fill:#000;stroke:#000" points="237.8 -263.9 229 -258 232.2 -268.1 237.8 -263.9"/></g><g id="node4" class="node"><title>validator_x86_32_rl</title><polygon style="fill:#d3d3d3;stroke:#000" points="366 -386 228 -386 228 -390 216 -390 216 -350 366 -350 366 -386"/><polyline style="fill:none;stroke:#000" points="216 -386 228 -386"/><text x="291" y="-363.9" text-anchor="middle" style="font-family:Times New Roman;font-size:14">validator_x86_32.rl</text></g><g id="edge12" class="edge"><title>validator_x86_32_rl-&gt;ragel</title><path style="fill:none;stroke:#000" d="M292.002,-349.933C293.001,-335.045 292.001,-313.045 283.118,-296.471 276.293,-283.707 265.293,-272.707 253.445,-264.832"/><path style="fill:none;stroke:#000" d="M293.998,-350.067C294.999,-334.955 293.999,-312.955 284.882,-295.529 277.707,-282.293 266.707,-271.293 254.555,-263.168"/><polygon style="fill:#000;stroke:#000" points="256.1 -261.2 246 -258 251.9 -266.8 256.1 -261.2"/></g><g id="node5" class="node"><title>decoding_h</title><polygon style="fill:#d3d3d3;stroke:#000" points="393 -184 315 -184 315 -188 303 -188 303 -148 393 -148 393 -184"/><polyline style="fill:none;stroke:#000" points="303 -184 315 -184"/><text x="348" y="-161.9" text-anchor="middle" style="font-family:Times New Roman;font-size:14">decoding.h</text></g><g id="node9" class="node"><title>gcc</title><polygon style="fill:gray;stroke:#000" points="332.232 -74 363.768 -74 375 -110 321 -110 332.232 -74"/><text x="348" y="-87.9" text-anchor="middle" style="font-family:Times New Roman;font-size:14">gcc</text></g><g id="edge20" class="edge"><title>decoding_h-&gt;gcc</title><path style="fill:none;stroke:#000" d="M347,-148C347,-139 347,-130 347,-120"/><path style="fill:none;stroke:#000" d="M349,-148C349,-139 349,-130 349,-120"/><polygon style="fill:#000;stroke:#000" points="351.5 -120 348 -110 344.5 -120 351.5 -120"/></g><g id="node6" class="node"><title>validator_internal_h</title><polygon style="fill:#d3d3d3;stroke:#000" points="563 -184 423 -184 423 -188 411 -188 411 -148 563 -148 563 -184"/><polyline style="fill:none;stroke:#000" points="411 -184 423 -184"/><text x="487" y="-161.9" text-anchor="middle" style="font-family:Times New Roman;font-size:14">validator_internal.h</text></g><g id="edge22" class="edge"><title>validator_internal_h-&gt;gcc</title><path style="fill:none;stroke:#000" d="M452.536,-148.886C431.528,-137.881 403.528,-122.881 382.536,-111.886"/><path style="fill:none;stroke:#000" d="M453.464,-147.114C432.472,-136.119 404.472,-121.119 383.464,-110.114"/><polygon style="fill:#000;stroke:#000" points="384.441 -107.797 374 -106 381.042 -113.916 384.441 -107.797"/></g><g id="node11" class="node"><title>validator_x86_32_instruction_rl</title><polygon style="fill:none;stroke:#000" points="242 -332 10 -332 10 -296 242 -296 242 -332"/><text x="126" y="-309.9" text-anchor="middle" style="font-family:Times New Roman;font-size:14">validator_x86_32_instruction.rl</text></g><g id="edge4" class="edge"><title>gen_dfa-&gt;validator_x86_32_instruction_rl</title><path style="fill:none;stroke:#000" d="M125,-404C125,-387 125,-362 125,-342"/><path style="fill:none;stroke:#000" d="M127,-404C127,-387 127,-362 127,-342"/><polygon style="fill:#000;stroke:#000" points="129.5 -342 126 -332 122.5 -342 129.5 -342"/></g><g id="node10" class="node"><title>validator_x86_32_c</title><polygon style="fill:none;stroke:#000" points="285 -184 139 -184 139 -148 285 -148 285 -184"/><text x="212" y="-161.9" text-anchor="middle" style="font-family:Times New Roman;font-size:14">validator_x86_32.c</text></g><g id="edge16" class="edge"><title>ragel-&gt;validator_x86_32_c</title><path style="fill:none;stroke:#000" d="M211,-222C211,-213 211,-204 211,-194"/><path style="fill:none;stroke:#000" d="M213,-222C213,-213 213,-204 213,-194"/><polygon style="fill:#000;stroke:#000" points="215.5 -194 212 -184 208.5 -194 215.5 -194"/></g><g id="node13" class="node"><title>validator_x86_32_o</title><polygon style="fill:none;stroke:#000" points="422 -36 274 -36 274 0 422 0 422 -36"/><text x="348" y="-13.9" text-anchor="middle" style="font-family:Times New Roman;font-size:14">validator_x86_32.o</text></g><g id="edge24" class="edge"><title>gcc-&gt;validator_x86_32_o</title><path style="fill:none;stroke:#000" d="M347,-74C347,-65 347,-56 347,-46"/><path style="fill:none;stroke:#000" d="M349,-74C349,-65 349,-56 349,-46"/><polygon style="fill:#000;stroke:#000" points="351.5 -46 348 -36 344.5 -46 351.5 -46"/></g><g id="edge18" class="edge"><title>validator_x86_32_c-&gt;gcc</title><path style="fill:none;stroke:#000" d="M244.536,-147.114C265.5,-136.134 291.5,-121.134 312.536,-110.114"/><path style="fill:none;stroke:#000" d="M245.464,-148.886C266.5,-137.866 292.5,-122.866 313.464,-111.886"/><polygon style="fill:#000;stroke:#000" points="314.958 -113.916 322 -106 311.559 -107.797 314.958 -113.916"/></g><g id="edge14" class="edge"><title>validator_x86_32_instruction_rl-&gt;ragel</title><path style="fill:none;stroke:#000" d="M146.327,-295.26C157.382,-285.214 171.382,-274.214 182.327,-264.26"/><path style="fill:none;stroke:#000" d="M147.673,-296.74C158.618,-286.786 172.618,-275.786 183.673,-265.74"/><polygon style="fill:#000;stroke:#000" points="185.779 -267.219 191 -258 181.169 -261.951 185.779 -267.219"/></g><g id="edge8" class="edge"><title>byte_machines_rl-&gt;ragel</title><path style="fill:none;stroke:#000" d="M355.623,-296.926C328.658,-285.94 295.658,-273.94 266.645,-262.935"/><path style="fill:none;stroke:#000" d="M356.377,-295.074C329.342,-284.06 296.342,-272.06 267.355,-261.065"/><polygon style="fill:#000;stroke:#000" points="268.56 -258.863 258 -258 265.717 -265.26 268.56 -258.863"/></g></g></svg>