<svg xmlns="http://www.w3.org/2000/svg" xmlns:xlink="http://www.w3.org/1999/xlink" width="1376pt" height="226pt" viewBox="0 0 1376 226"><g id="graph0" class="graph" transform="scale(1 1) rotate(0) translate(4 222)"><title>one_instruction_x86_32</title><g id="node1" class="node"><title>ENTRY</title><ellipse style="fill:#000;stroke:#000" cx="2" cy="-111" rx="1.8" ry="1.8"/></g><g id="node3" class="node"><title>4</title><ellipse style="fill:none;stroke:#000" cx="101" cy="-91" rx="23.073" ry="23.073"/><ellipse style="fill:none;stroke:#000" cx="101" cy="-91" rx="27" ry="27"/><text x="101" y="-86.9" text-anchor="middle" style="font-family:Times New Roman;font-size:14">4</text></g><g id="edge26" class="edge"><title>ENTRY-&gt;4</title><path style="fill:none;stroke:#000" d="M4,-111C12,-109 40,-104 64,-98"/><polygon style="fill:#000;stroke:#000" points="64.881 -101.393 74 -96 63.508 -94.529 64.881 -101.393"/><text x="39" y="-109.9" text-anchor="middle" style="font-family:Times New Roman;font-size:14">IN</text></g><g id="node2" class="node"><title>en_4</title><ellipse style="fill:#000;stroke:#000" cx="2" cy="-71" rx="1.8" ry="1.8"/></g><g id="edge28" class="edge"><title>en_4-&gt;4</title><path style="fill:none;stroke:#000" d="M4,-71C11,-72 37,-74 56,-78 59,-78 62,-79 65,-80"/><polygon style="fill:#000;stroke:#000" points="64.416 -83.479 75 -83 66.427 -76.774 64.416 -83.479"/><text x="39" y="-81.9" text-anchor="middle" style="font-family:Times New Roman;font-size:14">main</text></g><g id="node8" class="node"><title>1</title><ellipse style="fill:none;stroke:#000" cx="201" cy="-91" rx="23" ry="23"/><text x="201" y="-86.9" text-anchor="middle" style="font-family:Times New Roman;font-size:14">1</text></g><g id="edge8" class="edge"><title>4-&gt;1</title><path style="fill:none;stroke:#000" d="M128,-91C140,-91 155,-91 168,-91"/><polygon style="fill:#000;stroke:#000" points="168 -94.5 178 -91 168 -87.5 168 -94.5"/><text x="153" y="-94.9" text-anchor="middle" style="font-family:Times New Roman;font-size:14">&apos;b&apos;</text></g><g id="node4" class="node"><title>5</title><ellipse style="fill:none;stroke:#000" cx="561" cy="-100" rx="23.073" ry="23.073"/><ellipse style="fill:none;stroke:#000" cx="561" cy="-100" rx="27" ry="27"/><text x="561" y="-95.9" text-anchor="middle" style="font-family:Times New Roman;font-size:14">5</text></g><g id="node5" class="node"><title>6</title><ellipse style="fill:none;stroke:#000" cx="769" cy="-67" rx="23.073" ry="23.073"/><ellipse style="fill:none;stroke:#000" cx="769" cy="-67" rx="27" ry="27"/><text x="769" y="-62.9" text-anchor="middle" style="font-family:Times New Roman;font-size:14">6</text></g><g id="edge10" class="edge"><title>5-&gt;6</title><path style="fill:none;stroke:#000" d="M588,-96C625,-90 691,-80 732,-73"/><polygon style="fill:#000;stroke:#000" points="732.881 -76.393 742 -71 731.508 -69.529 732.881 -76.393"/><text x="665" y="-95.9" text-anchor="middle" style="font-family:Times New Roman;font-size:14">&apos;a&apos; / begin2, end3</text></g><g id="edge12" class="edge"><title>5-&gt;1</title><path style="fill:none;stroke:#000" d="M534,-99C469,-98 305,-94 234,-92"/><polygon style="fill:#000;stroke:#000" points="234 -88.5 224 -92 234 -95.5 234 -88.5"/><text x="413" y="-99.9" text-anchor="middle" style="font-family:Times New Roman;font-size:14">&apos;b&apos;</text></g><g id="node6" class="node"><title>7</title><ellipse style="fill:none;stroke:#000" cx="989" cy="-67" rx="23.073" ry="23.073"/><ellipse style="fill:none;stroke:#000" cx="989" cy="-67" rx="27" ry="27"/><text x="989" y="-62.9" text-anchor="middle" style="font-family:Times New Roman;font-size:14">7</text></g><g id="edge14" class="edge"><title>6-&gt;7</title><path style="fill:none;stroke:#000" d="M796,-67C835,-67 908,-67 952,-67"/><polygon style="fill:#000;stroke:#000" points="952 -70.5 962 -67 952 -63.5 952 -70.5"/><text x="879" y="-70.9" text-anchor="middle" style="font-family:Times New Roman;font-size:14">&apos;a&apos; / end2, begin3</text></g><g id="edge16" class="edge"><title>6-&gt;1</title><path style="fill:none;stroke:#000" d="M742,-66C707,-66 643,-65 588,-64 565,-64 558,-64 534,-64 404,-70 372,-75 242,-87 239,-87 237,-87 234,-87"/><polygon style="fill:#000;stroke:#000" points="233.602 -83.522 224 -88 234.299 -90.487 233.602 -83.522"/><text x="485" y="-72.9" text-anchor="middle" style="font-family:Times New Roman;font-size:14">&apos;b&apos;</text></g><g id="edge20" class="edge"><title>7-&gt;1</title><path style="fill:none;stroke:#000" d="M965,-54C925,-35 843,-0 769,-0 413,-0 413,-0 413,-0 342,-0 267,-44 229,-71"/><polygon style="fill:#000;stroke:#000" points="226.379 -68.541 220 -77 230.262 -74.365 226.379 -68.541"/><text x="561" y="-4.9" text-anchor="middle" style="font-family:Times New Roman;font-size:14">&apos;b&apos;</text></g><g id="node12" class="node"><title>3</title><ellipse style="fill:none;stroke:#000" cx="1149" cy="-96" rx="23" ry="23"/><text x="1149" y="-91.9" text-anchor="middle" style="font-family:Times New Roman;font-size:14">3</text></g><g id="edge18" class="edge"><title>7-&gt;3</title><path style="fill:none;stroke:#000" d="M1016,-72C1044,-76 1086,-85 1116,-90"/><polygon style="fill:#000;stroke:#000" points="1115.51 -93.471 1126 -92 1116.88 -86.607 1115.51 -93.471"/><text x="1071" y="-90.9" text-anchor="middle" style="font-family:Times New Roman;font-size:14">&apos;a&apos; / begin2</text></g><g id="node7" class="node"><title>8</title><ellipse style="fill:none;stroke:#000" cx="1341" cy="-156" rx="23.073" ry="23.073"/><ellipse style="fill:none;stroke:#000" cx="1341" cy="-156" rx="27" ry="27"/><text x="1341" y="-151.9" text-anchor="middle" style="font-family:Times New Roman;font-size:14">8</text></g><g id="edge24" class="edge"><title>8-&gt;1</title><path style="fill:none;stroke:#000" d="M1316,-166C1279,-180 1210,-202 1149,-202 413,-202 413,-202 413,-202 335,-202 306,-204 242,-158 230,-149 220,-135 214,-122"/><polygon style="fill:#000;stroke:#000" points="216.916 -120.042 209 -113 210.797 -123.441 216.916 -120.042"/><text x="769" y="-205.9" text-anchor="middle" style="font-family:Times New Roman;font-size:14">&apos;b&apos;</text></g><g id="node10" class="node"><title>2</title><ellipse style="fill:none;stroke:#000" cx="413" cy="-149" rx="23" ry="23"/><text x="413" y="-144.9" text-anchor="middle" style="font-family:Times New Roman;font-size:14">2</text></g><g id="edge22" class="edge"><title>8-&gt;2</title><path style="fill:none;stroke:#000" d="M1314,-156C1277,-156 1208,-156 1149,-156 561,-156 561,-156 561,-156 522,-156 476,-154 446,-152"/><polygon style="fill:#000;stroke:#000" points="446.299 -148.512 436 -151 445.602 -155.478 446.299 -148.512"/><text x="879" y="-159.9" text-anchor="middle" style="font-family:Times New Roman;font-size:14">&apos;a&apos; / begin2, begin3</text></g><g id="edge2" class="edge"><title>1-&gt;2</title><path style="fill:none;stroke:#000" d="M223,-99C229,-101 236,-103 242,-105 290,-119 346,-133 381,-142"/><polygon style="fill:#000;stroke:#000" points="380.508 -145.471 391 -144 381.881 -138.607 380.508 -145.471"/><text x="307" y="-140.9" text-anchor="middle" style="font-family:Times New Roman;font-size:14">&apos;a&apos; / begin2, begin3</text></g><g id="edge4" class="edge"><title>2-&gt;5</title><path style="fill:none;stroke:#000" d="M432,-136C439,-132 447,-128 454,-125 477,-116 503,-109 524,-106"/><polygon style="fill:#000;stroke:#000" points="524.881 -109.393 534 -104 523.508 -102.529 524.881 -109.393"/><text x="485" y="-128.9" text-anchor="middle" style="font-family:Times New Roman;font-size:14">&apos;a&apos; / end2</text></g><g id="edge6" class="edge"><title>3-&gt;8</title><path style="fill:none;stroke:#000" d="M1172,-98C1202,-100 1255,-107 1296,-125 1301,-127 1306,-130 1311,-132"/><polygon style="fill:#000;stroke:#000" points="1309.74 -135.365 1320 -138 1313.62 -129.541 1309.74 -135.365"/><text x="1243" y="-128.9" text-anchor="middle" style="font-family:Times New Roman;font-size:14">&apos;a&apos; / end2, end3</text></g></g></svg>