<svg xmlns="http://www.w3.org/2000/svg" xmlns:xlink="http://www.w3.org/1999/xlink" width="1196pt" height="226pt" viewBox="0 0 1196 226"><g id="graph0" class="graph" transform="scale(1 1) rotate(0) translate(4 222)"><title>one_instruction_x86_32</title><g id="node1" class="node"><title>ENTRY</title><ellipse style="fill:#000;stroke:#000" cx="2" cy="-111" rx="1.8" ry="1.8"/></g><g id="node3" class="node"><title>4</title><ellipse style="fill:none;stroke:#000" cx="101" cy="-91" rx="23.073" ry="23.073"/><ellipse style="fill:none;stroke:#000" cx="101" cy="-91" rx="27" ry="27"/><text x="101" y="-86.9" text-anchor="middle" style="font-family:Times New Roman;font-size:14">4</text></g><g id="edge26" class="edge"><title>ENTRY-&gt;4</title><path style="fill:none;stroke:#000" d="M4,-111C12,-109 40,-104 64,-98"/><polygon style="fill:#000;stroke:#000" points="64.881 -101.393 74 -96 63.508 -94.529 64.881 -101.393"/><text x="39" y="-109.9" text-anchor="middle" style="font-family:Times New Roman;font-size:14">IN</text></g><g id="node2" class="node"><title>en_4</title><ellipse style="fill:#000;stroke:#000" cx="2" cy="-71" rx="1.8" ry="1.8"/></g><g id="edge28" class="edge"><title>en_4-&gt;4</title><path style="fill:none;stroke:#000" d="M4,-71C11,-72 37,-74 56,-78 59,-78 62,-79 65,-80"/><polygon style="fill:#000;stroke:#000" points="64.416 -83.479 75 -83 66.427 -76.774 64.416 -83.479"/><text x="39" y="-81.9" text-anchor="middle" style="font-family:Times New Roman;font-size:14">main</text></g><g id="node8" class="node"><title>1</title><ellipse style="fill:none;stroke:#000" cx="201" cy="-91" rx="23" ry="23"/><text x="201" y="-86.9" text-anchor="middle" style="font-family:Times New Roman;font-size:14">1</text></g><g id="edge8" class="edge"><title>4-&gt;1</title><path style="fill:none;stroke:#000" d="M128,-91C140,-91 155,-91 168,-91"/><polygon style="fill:#000;stroke:#000" points="168 -94.5 178 -91 168 -87.5 168 -94.5"/><text x="153" y="-94.9" text-anchor="middle" style="font-family:Times New Roman;font-size:14">&apos;b&apos;</text></g><g id="node4" class="node"><title>5</title><ellipse style="fill:none;stroke:#000" cx="489" cy="-100" rx="23.073" ry="23.073"/><ellipse style="fill:none;stroke:#000" cx="489" cy="-100" rx="27" ry="27"/><text x="489" y="-95.9" text-anchor="middle" style="font-family:Times New Roman;font-size:14">5</text></g><g id="node5" class="node"><title>6</title><ellipse style="fill:none;stroke:#000" cx="679" cy="-67" rx="23.073" ry="23.073"/><ellipse style="fill:none;stroke:#000" cx="679" cy="-67" rx="27" ry="27"/><text x="679" y="-62.9" text-anchor="middle" style="font-family:Times New Roman;font-size:14">6</text></g><g id="edge10" class="edge"><title>5-&gt;6</title><path style="fill:none;stroke:#000" d="M516,-95C549,-90 605,-80 642,-74"/><polygon style="fill:#000;stroke:#000" points="642.881 -77.393 652 -72 641.508 -70.529 642.881 -77.393"/><text x="584" y="-94.9" text-anchor="middle" style="font-family:Times New Roman;font-size:14">&apos;a&apos; / begin, end</text></g><g id="edge12" class="edge"><title>5-&gt;1</title><path style="fill:none;stroke:#000" d="M462,-99C408,-97 291,-94 234,-92"/><polygon style="fill:#000;stroke:#000" points="234 -88.5 224 -92 234 -95.5 234 -88.5"/><text x="349" y="-98.9" text-anchor="middle" style="font-family:Times New Roman;font-size:14">&apos;b&apos;</text></g><g id="node6" class="node"><title>7</title><ellipse style="fill:none;stroke:#000" cx="869" cy="-67" rx="23.073" ry="23.073"/><ellipse style="fill:none;stroke:#000" cx="869" cy="-67" rx="27" ry="27"/><text x="869" y="-62.9" text-anchor="middle" style="font-family:Times New Roman;font-size:14">7</text></g><g id="edge14" class="edge"><title>6-&gt;7</title><path style="fill:none;stroke:#000" d="M706,-67C739,-67 795,-67 832,-67"/><polygon style="fill:#000;stroke:#000" points="832 -70.5 842 -67 832 -63.5 832 -70.5"/><text x="774" y="-70.9" text-anchor="middle" style="font-family:Times New Roman;font-size:14">&apos;a&apos; / end, begin</text></g><g id="edge16" class="edge"><title>6-&gt;1</title><path style="fill:none;stroke:#000" d="M652,-66C619,-66 564,-65 516,-64 493,-64 486,-63 462,-64 380,-69 284,-80 234,-87"/><polygon style="fill:#000;stroke:#000" points="233.602 -83.522 224 -88 234.299 -90.487 233.602 -83.522"/><text x="417" y="-73.9" text-anchor="middle" style="font-family:Times New Roman;font-size:14">&apos;b&apos;</text></g><g id="edge20" class="edge"><title>7-&gt;1</title><path style="fill:none;stroke:#000" d="M846,-53C811,-33 742,-0 679,-0 349,-0 349,-0 349,-0 299,-0 250,-39 223,-66"/><polygon style="fill:#000;stroke:#000" points="220.596 -63.454 216 -73 225.546 -68.404 220.596 -63.454"/><text x="489" y="-4.9" text-anchor="middle" style="font-family:Times New Roman;font-size:14">&apos;b&apos;</text></g><g id="node12" class="node"><title>3</title><ellipse style="fill:none;stroke:#000" cx="1021" cy="-96" rx="23" ry="23"/><text x="1021" y="-91.9" text-anchor="middle" style="font-family:Times New Roman;font-size:14">3</text></g><g id="edge18" class="edge"><title>7-&gt;3</title><path style="fill:none;stroke:#000" d="M896,-72C922,-76 961,-84 988,-90"/><polygon style="fill:#000;stroke:#000" points="987.508 -93.471 998 -92 988.881 -86.607 987.508 -93.471"/><text x="947" y="-89.9" text-anchor="middle" style="font-family:Times New Roman;font-size:14">&apos;a&apos; / begin</text></g><g id="node7" class="node"><title>8</title><ellipse style="fill:none;stroke:#000" cx="1161" cy="-156" rx="23.073" ry="23.073"/><ellipse style="fill:none;stroke:#000" cx="1161" cy="-156" rx="27" ry="27"/><text x="1161" y="-151.9" text-anchor="middle" style="font-family:Times New Roman;font-size:14">8</text></g><g id="edge24" class="edge"><title>8-&gt;1</title><path style="fill:none;stroke:#000" d="M1137,-169C1110,-183 1064,-202 1021,-202 349,-202 349,-202 349,-202 297,-202 282,-186 242,-152 232,-143 224,-131 217,-121"/><polygon style="fill:#000;stroke:#000" points="219.916 -119.042 212 -112 213.797 -122.441 219.916 -119.042"/><text x="679" y="-205.9" text-anchor="middle" style="font-family:Times New Roman;font-size:14">&apos;b&apos;</text></g><g id="node10" class="node"><title>2</title><ellipse style="fill:none;stroke:#000" cx="349" cy="-149" rx="23" ry="23"/><text x="349" y="-144.9" text-anchor="middle" style="font-family:Times New Roman;font-size:14">2</text></g><g id="edge22" class="edge"><title>8-&gt;2</title><path style="fill:none;stroke:#000" d="M1134,-156C1106,-156 1061,-156 1021,-156 489,-156 489,-156 489,-156 453,-156 411,-154 382,-152"/><polygon style="fill:#000;stroke:#000" points="382.299 -148.512 372 -151 381.602 -155.478 382.299 -148.512"/><text x="774" y="-159.9" text-anchor="middle" style="font-family:Times New Roman;font-size:14">&apos;a&apos; / begin</text></g><g id="edge2" class="edge"><title>1-&gt;2</title><path style="fill:none;stroke:#000" d="M223,-99C248,-110 290,-126 318,-137"/><polygon style="fill:#000;stroke:#000" points="317.415 -140.536 328 -141 320.015 -134.036 317.415 -140.536"/><text x="275" y="-134.9" text-anchor="middle" style="font-family:Times New Roman;font-size:14">&apos;a&apos; / begin</text></g><g id="edge4" class="edge"><title>2-&gt;5</title><path style="fill:none;stroke:#000" d="M368,-136C375,-132 383,-128 390,-125 410,-117 433,-110 452,-106"/><polygon style="fill:#000;stroke:#000" points="452.881 -109.393 462 -104 451.508 -102.529 452.881 -109.393"/><text x="417" y="-128.9" text-anchor="middle" style="font-family:Times New Roman;font-size:14">&apos;a&apos; / end</text></g><g id="edge6" class="edge"><title>3-&gt;8</title><path style="fill:none;stroke:#000" d="M1044,-101C1064,-105 1093,-113 1116,-125 1121,-127 1126,-130 1130,-133"/><polygon style="fill:#000;stroke:#000" points="1128.74 -136.365 1139 -139 1132.62 -130.541 1128.74 -136.365"/><text x="1089" y="-128.9" text-anchor="middle" style="font-family:Times New Roman;font-size:14">&apos;a&apos; / end</text></g></g></svg>