<svg xmlns="http://www.w3.org/2000/svg" xmlns:xlink="http://www.w3.org/1999/xlink" width="1120" height="226pt" viewBox="0 0 840 226"><g id="graph0" class="graph" transform="scale(1 1) rotate(0) translate(4 222)"><title>one_instruction_x86_32</title><g id="node1" class="node"><title>ENTRY</title><ellipse style="fill:#000;stroke:#000" cx="2" cy="-111" rx="1.8" ry="1.8"/></g><g id="node3" class="node"><title>4</title><ellipse style="fill:none;stroke:#000" cx="101" cy="-91" rx="23.073" ry="23.073"/><ellipse style="fill:none;stroke:#000" cx="101" cy="-91" rx="27" ry="27"/><text x="101" y="-86.9" text-anchor="middle" style="font-family:Times New Roman;font-size:14">4</text></g><g id="edge26" class="edge"><title>ENTRY-&gt;4</title><path style="fill:none;stroke:#000" d="M4,-111C12,-109 40,-104 64,-98"/><polygon style="fill:#000;stroke:#000" points="64.881 -101.393 74 -96 63.508 -94.529 64.881 -101.393"/><text x="39" y="-109.9" text-anchor="middle" style="font-family:Times New Roman;font-size:14">IN</text></g><g id="node2" class="node"><title>en_4</title><ellipse style="fill:#000;stroke:#000" cx="2" cy="-71" rx="1.8" ry="1.8"/></g><g id="edge28" class="edge"><title>en_4-&gt;4</title><path style="fill:none;stroke:#000" d="M4,-71C11,-72 37,-74 56,-78 59,-78 62,-79 65,-80"/><polygon style="fill:#000;stroke:#000" points="64.416 -83.479 75 -83 66.427 -76.774 64.416 -83.479"/><text x="39" y="-81.9" text-anchor="middle" style="font-family:Times New Roman;font-size:14">main</text></g><g id="node8" class="node"><title>1</title><ellipse style="fill:none;stroke:#000" cx="201" cy="-91" rx="23" ry="23"/><text x="201" y="-86.9" text-anchor="middle" style="font-family:Times New Roman;font-size:14">1</text></g><g id="edge8" class="edge"><title>4-&gt;1</title><path style="fill:none;stroke:#000" d="M128,-91C140,-91 155,-91 168,-91"/><polygon style="fill:#000;stroke:#000" points="168 -94.5 178 -91 168 -87.5 168 -94.5"/><text x="153" y="-94.9" text-anchor="middle" style="font-family:Times New Roman;font-size:14">&apos;b&apos;</text></g><g id="node4" class="node"><title>5</title><ellipse style="fill:none;stroke:#000" cx="397" cy="-100" rx="23.073" ry="23.073"/><ellipse style="fill:none;stroke:#000" cx="397" cy="-100" rx="27" ry="27"/><text x="397" y="-95.9" text-anchor="middle" style="font-family:Times New Roman;font-size:14">5</text></g><g id="node5" class="node"><title>6</title><ellipse style="fill:none;stroke:#000" cx="501" cy="-67" rx="23.073" ry="23.073"/><ellipse style="fill:none;stroke:#000" cx="501" cy="-67" rx="27" ry="27"/><text x="501" y="-62.9" text-anchor="middle" style="font-family:Times New Roman;font-size:14">6</text></g><g id="edge10" class="edge"><title>5-&gt;6</title><path style="fill:none;stroke:#000" d="M423,-92C436,-88 451,-83 465,-78"/><polygon style="fill:#000;stroke:#000" points="466.427 -81.226 475 -75 464.416 -74.521 466.427 -81.226"/><text x="449" y="-87.9" text-anchor="middle" style="font-family:Times New Roman;font-size:14">&apos;a&apos;</text></g><g id="edge12" class="edge"><title>5-&gt;1</title><path style="fill:none;stroke:#000" d="M370,-99C334,-97 273,-94 234,-92"/><polygon style="fill:#000;stroke:#000" points="234 -88.5 224 -92 234 -95.5 234 -88.5"/><text x="297" y="-98.9" text-anchor="middle" style="font-family:Times New Roman;font-size:14">&apos;b&apos;</text></g><g id="node6" class="node"><title>7</title><ellipse style="fill:none;stroke:#000" cx="605" cy="-67" rx="23.073" ry="23.073"/><ellipse style="fill:none;stroke:#000" cx="605" cy="-67" rx="27" ry="27"/><text x="605" y="-62.9" text-anchor="middle" style="font-family:Times New Roman;font-size:14">7</text></g><g id="edge14" class="edge"><title>6-&gt;7</title><path style="fill:none;stroke:#000" d="M528,-67C540,-67 554,-67 568,-67"/><polygon style="fill:#000;stroke:#000" points="568 -70.5 578 -67 568 -63.5 568 -70.5"/><text x="553" y="-70.9" text-anchor="middle" style="font-family:Times New Roman;font-size:14">&apos;a&apos;</text></g><g id="edge16" class="edge"><title>6-&gt;1</title><path style="fill:none;stroke:#000" d="M474,-66C459,-65 441,-64 424,-64 401,-64 394,-63 370,-64 323,-69 268,-78 234,-84"/><polygon style="fill:#000;stroke:#000" points="233.119 -80.607 224 -86 234.492 -87.471 233.119 -80.607"/><text x="345" y="-73.9" text-anchor="middle" style="font-family:Times New Roman;font-size:14">&apos;b&apos;</text></g><g id="edge20" class="edge"><title>7-&gt;1</title><path style="fill:none;stroke:#000" d="M587,-47C568,-27 536,-0 501,-0 297,-0 297,-0 297,-0 261,-0 233,-35 216,-61"/><polygon style="fill:#000;stroke:#000" points="212.797 -59.559 211 -70 218.916 -62.958 212.797 -59.559"/><text x="397" y="-4.9" text-anchor="middle" style="font-family:Times New Roman;font-size:14">&apos;b&apos;</text></g><g id="node12" class="node"><title>3</title><ellipse style="fill:none;stroke:#000" cx="705" cy="-96" rx="23" ry="23"/><text x="705" y="-91.9" text-anchor="middle" style="font-family:Times New Roman;font-size:14">3</text></g><g id="edge18" class="edge"><title>7-&gt;3</title><path style="fill:none;stroke:#000" d="M631,-75C644,-78 659,-83 673,-86"/><polygon style="fill:#000;stroke:#000" points="672.416 -89.479 683 -89 674.427 -82.774 672.416 -89.479"/><text x="657" y="-85.9" text-anchor="middle" style="font-family:Times New Roman;font-size:14">&apos;a&apos;</text></g><g id="node7" class="node"><title>8</title><ellipse style="fill:none;stroke:#000" cx="805" cy="-156" rx="23.073" ry="23.073"/><ellipse style="fill:none;stroke:#000" cx="805" cy="-156" rx="27" ry="27"/><text x="805" y="-151.9" text-anchor="middle" style="font-family:Times New Roman;font-size:14">8</text></g><g id="edge24" class="edge"><title>8-&gt;1</title><path style="fill:none;stroke:#000" d="M783,-173C764,-186 734,-202 705,-202 297,-202 297,-202 297,-202 255,-202 227,-155 213,-123"/><polygon style="fill:#000;stroke:#000" points="215.964 -120.985 209 -113 209.464 -123.585 215.964 -120.985"/><text x="501" y="-205.9" text-anchor="middle" style="font-family:Times New Roman;font-size:14">&apos;b&apos;</text></g><g id="node10" class="node"><title>2</title><ellipse style="fill:none;stroke:#000" cx="297" cy="-149" rx="23" ry="23"/><text x="297" y="-144.9" text-anchor="middle" style="font-family:Times New Roman;font-size:14">2</text></g><g id="edge22" class="edge"><title>8-&gt;2</title><path style="fill:none;stroke:#000" d="M778,-156C758,-156 730,-156 705,-156 397,-156 397,-156 397,-156 375,-156 350,-155 330,-153"/><polygon style="fill:#000;stroke:#000" points="330.299 -149.512 320 -152 329.602 -156.478 330.299 -149.512"/><text x="553" y="-159.9" text-anchor="middle" style="font-family:Times New Roman;font-size:14">&apos;a&apos;</text></g><g id="edge2" class="edge"><title>1-&gt;2</title><path style="fill:none;stroke:#000" d="M221,-103C234,-111 253,-122 268,-132"/><polygon style="fill:#000;stroke:#000" points="266.559 -135.203 277 -137 269.958 -129.084 266.559 -135.203"/><text x="249" y="-125.9" text-anchor="middle" style="font-family:Times New Roman;font-size:14">&apos;a&apos;</text></g><g id="edge4" class="edge"><title>2-&gt;5</title><path style="fill:none;stroke:#000" d="M317,-137C323,-133 331,-128 338,-125 346,-121 354,-117 363,-114"/><polygon style="fill:#000;stroke:#000" points="364.283 -117.26 372 -110 361.44 -110.863 364.283 -117.26"/><text x="345" y="-128.9" text-anchor="middle" style="font-family:Times New Roman;font-size:14">&apos;a&apos;</text></g><g id="edge6" class="edge"><title>3-&gt;8</title><path style="fill:none;stroke:#000" d="M726,-106C736,-111 749,-118 760,-125 765,-128 770,-131 775,-134"/><polygon style="fill:#000;stroke:#000" points="772.9 -136.8 783 -140 777.1 -131.2 772.9 -136.8"/><text x="753" y="-128.9" text-anchor="middle" style="font-family:Times New Roman;font-size:14">&apos;a&apos;</text></g></g></svg>